<mxfile host="65bd71144e">
    <diagram name="Page-1" id="ocNRbXoolqdlQBZxbzge">
        <mxGraphModel dx="1212" dy="1167" grid="1" gridSize="10" guides="1" tooltips="1" connect="1" arrows="1" fold="1" page="0" pageScale="1" pageWidth="850" pageHeight="1100" math="0" shadow="0">
            <root>
                <mxCell id="0"/>
                <mxCell id="1" parent="0"/>
                <mxCell id="uNoPzMSkY7lmCDnWB6Vt-1" value="Enrich image database" style="swimlane;whiteSpace=wrap;html=1;fillColor=#ffe6cc;strokeColor=#d79b00;" parent="1" vertex="1">
                    <mxGeometry x="360" y="-262" width="390" height="352" as="geometry"/>
                </mxCell>
                <mxCell id="uNoPzMSkY7lmCDnWB6Vt-2" value="Language: python&lt;br&gt;libraries: duckduckgo_search, deepfaces ...&lt;br&gt;&lt;div style=&quot;&quot;&gt;&lt;br&gt;&lt;/div&gt;" style="text;html=1;align=left;verticalAlign=middle;resizable=0;points=[];autosize=1;strokeColor=none;fillColor=none;" parent="uNoPzMSkY7lmCDnWB6Vt-1" vertex="1">
                    <mxGeometry x="3" y="27" width="249" height="55" as="geometry"/>
                </mxCell>
                <mxCell id="uNoPzMSkY7lmCDnWB6Vt-21" value="get new images per name" style="swimlane;whiteSpace=wrap;html=1;startSize=32;fillColor=#ffe6cc;strokeColor=#d79b00;" parent="uNoPzMSkY7lmCDnWB6Vt-1" vertex="1">
                    <mxGeometry x="8" y="78" width="145" height="268" as="geometry">
                        <mxRectangle x="8" y="78" width="181" height="32" as="alternateBounds"/>
                    </mxGeometry>
                </mxCell>
                <mxCell id="uNoPzMSkY7lmCDnWB6Vt-15" value="" style="group" parent="uNoPzMSkY7lmCDnWB6Vt-21" vertex="1" connectable="0">
                    <mxGeometry x="8" y="43" width="205" height="225" as="geometry"/>
                </mxCell>
                <mxCell id="uNoPzMSkY7lmCDnWB6Vt-3" value="Parse names in lfw_cut (base dataset)" style="rounded=1;whiteSpace=wrap;html=1;" parent="uNoPzMSkY7lmCDnWB6Vt-15" vertex="1">
                    <mxGeometry x="1.0178571428571428" width="126.21428571428571" height="49.53488372093023" as="geometry"/>
                </mxCell>
                <mxCell id="uNoPzMSkY7lmCDnWB6Vt-4" value="search names on ddg" style="whiteSpace=wrap;html=1;rounded=1;" parent="uNoPzMSkY7lmCDnWB6Vt-15" vertex="1">
                    <mxGeometry y="72.65116279069768" width="128.25" height="20.63953488372093" as="geometry"/>
                </mxCell>
                <mxCell id="uNoPzMSkY7lmCDnWB6Vt-5" value="" style="edgeStyle=orthogonalEdgeStyle;rounded=0;orthogonalLoop=1;jettySize=auto;html=1;" parent="uNoPzMSkY7lmCDnWB6Vt-15" source="uNoPzMSkY7lmCDnWB6Vt-3" target="uNoPzMSkY7lmCDnWB6Vt-4" edge="1">
                    <mxGeometry relative="1" as="geometry"/>
                </mxCell>
                <mxCell id="uNoPzMSkY7lmCDnWB6Vt-17" style="edgeStyle=orthogonalEdgeStyle;rounded=0;orthogonalLoop=1;jettySize=auto;html=1;" parent="uNoPzMSkY7lmCDnWB6Vt-15" source="uNoPzMSkY7lmCDnWB6Vt-8" target="uNoPzMSkY7lmCDnWB6Vt-10" edge="1">
                    <mxGeometry relative="1" as="geometry"/>
                </mxCell>
                <mxCell id="uNoPzMSkY7lmCDnWB6Vt-8" value="Return X first images" style="whiteSpace=wrap;html=1;rounded=1;" parent="uNoPzMSkY7lmCDnWB6Vt-15" vertex="1">
                    <mxGeometry y="116.40697674418605" width="128.25" height="20.63953488372093" as="geometry"/>
                </mxCell>
                <mxCell id="uNoPzMSkY7lmCDnWB6Vt-9" value="" style="edgeStyle=orthogonalEdgeStyle;rounded=0;orthogonalLoop=1;jettySize=auto;html=1;" parent="uNoPzMSkY7lmCDnWB6Vt-15" source="uNoPzMSkY7lmCDnWB6Vt-4" target="uNoPzMSkY7lmCDnWB6Vt-8" edge="1">
                    <mxGeometry relative="1" as="geometry"/>
                </mxCell>
                <mxCell id="uNoPzMSkY7lmCDnWB6Vt-25" value="" style="edgeStyle=orthogonalEdgeStyle;rounded=0;orthogonalLoop=1;jettySize=auto;html=1;" parent="uNoPzMSkY7lmCDnWB6Vt-15" source="uNoPzMSkY7lmCDnWB6Vt-10" target="uNoPzMSkY7lmCDnWB6Vt-13" edge="1">
                    <mxGeometry relative="1" as="geometry">
                        <Array as="points">
                            <mxPoint x="64" y="178"/>
                            <mxPoint x="64" y="178"/>
                        </Array>
                    </mxGeometry>
                </mxCell>
                <mxCell id="uNoPzMSkY7lmCDnWB6Vt-10" value="Cut out faces" style="whiteSpace=wrap;html=1;rounded=1;" parent="uNoPzMSkY7lmCDnWB6Vt-15" vertex="1">
                    <mxGeometry y="147.77906976744185" width="128.25" height="20.63953488372093" as="geometry"/>
                </mxCell>
                <mxCell id="uNoPzMSkY7lmCDnWB6Vt-13" value="Put faces in new folder in name_gender subfolder" style="whiteSpace=wrap;html=1;rounded=1;" parent="uNoPzMSkY7lmCDnWB6Vt-15" vertex="1">
                    <mxGeometry x="-5.38" y="182" width="139" height="36.02" as="geometry"/>
                </mxCell>
                <mxCell id="uNoPzMSkY7lmCDnWB6Vt-22" value="get new names" style="swimlane;whiteSpace=wrap;html=1;fillColor=#ffe6cc;strokeColor=#d79b00;" parent="uNoPzMSkY7lmCDnWB6Vt-1" vertex="1">
                    <mxGeometry x="161" y="78" width="209" height="87" as="geometry"/>
                </mxCell>
                <mxCell id="uNoPzMSkY7lmCDnWB6Vt-23" value="..." style="text;html=1;align=center;verticalAlign=middle;resizable=0;points=[];autosize=1;strokeColor=none;fillColor=none;fontStyle=1" parent="uNoPzMSkY7lmCDnWB6Vt-22" vertex="1">
                    <mxGeometry x="85" y="32" width="30" height="30" as="geometry"/>
                </mxCell>
                <mxCell id="uNoPzMSkY7lmCDnWB6Vt-35" value="get new characs for each person" style="swimlane;whiteSpace=wrap;html=1;fillColor=#ffe6cc;strokeColor=#d79b00;" parent="uNoPzMSkY7lmCDnWB6Vt-1" vertex="1">
                    <mxGeometry x="161" y="173" width="209" height="137" as="geometry"/>
                </mxCell>
                <mxCell id="uNoPzMSkY7lmCDnWB6Vt-36" value="Gender: &lt;br&gt;&lt;span style=&quot;white-space: pre;&quot;&gt;&#9;&lt;/span&gt;gender-guesser used for names,&lt;br&gt;&lt;span style=&quot;white-space: pre;&quot;&gt;&#9;&lt;/span&gt;could use deepfaces for &lt;br&gt;&lt;span style=&quot;white-space: pre;&quot;&gt;&#9;&lt;/span&gt;gendering images&lt;br&gt;&lt;br&gt;Age, race could be used.&amp;nbsp;&lt;br&gt;beards, glasses could also be used." style="text;html=1;align=left;verticalAlign=middle;resizable=0;points=[];autosize=1;strokeColor=none;fillColor=none;fontColor=#336600;" parent="uNoPzMSkY7lmCDnWB6Vt-35" vertex="1">
                    <mxGeometry y="24.29" width="220" height="110" as="geometry"/>
                </mxCell>
                <mxCell id="uNoPzMSkY7lmCDnWB6Vt-27" value="UI ToDo and ideas" style="swimlane;fontStyle=1;childLayout=stackLayout;horizontal=1;startSize=30;horizontalStack=0;resizeParent=1;resizeParentMax=0;resizeLast=0;collapsible=1;marginBottom=0;whiteSpace=wrap;html=1;fillColor=#f8cecc;strokeColor=#b85450;" parent="1" vertex="1">
                    <mxGeometry x="-40" y="-392" width="390" height="210" as="geometry"/>
                </mxCell>
                <mxCell id="uNoPzMSkY7lmCDnWB6Vt-28" value="Recode it in a better language (React for UI, python for backend?)" style="text;strokeColor=none;fillColor=none;align=left;verticalAlign=middle;spacingLeft=4;spacingRight=4;overflow=hidden;points=[[0,0.5],[1,0.5]];portConstraint=eastwest;rotatable=0;whiteSpace=wrap;html=1;" parent="uNoPzMSkY7lmCDnWB6Vt-27" vertex="1">
                    <mxGeometry y="30" width="390" height="30" as="geometry"/>
                </mxCell>
                <mxCell id="uNoPzMSkY7lmCDnWB6Vt-29" value="make visual template" style="text;strokeColor=none;fillColor=none;align=left;verticalAlign=middle;spacingLeft=4;spacingRight=4;overflow=hidden;points=[[0,0.5],[1,0.5]];portConstraint=eastwest;rotatable=0;whiteSpace=wrap;html=1;" parent="uNoPzMSkY7lmCDnWB6Vt-27" vertex="1">
                    <mxGeometry y="60" width="390" height="30" as="geometry"/>
                </mxCell>
                <mxCell id="uNoPzMSkY7lmCDnWB6Vt-30" value="make relationship diagram? split Front and back actions and classes" style="text;strokeColor=none;fillColor=none;align=left;verticalAlign=middle;spacingLeft=4;spacingRight=4;overflow=hidden;points=[[0,0.5],[1,0.5]];portConstraint=eastwest;rotatable=0;whiteSpace=wrap;html=1;" parent="uNoPzMSkY7lmCDnWB6Vt-27" vertex="1">
                    <mxGeometry y="90" width="390" height="30" as="geometry"/>
                </mxCell>
                <mxCell id="uNoPzMSkY7lmCDnWB6Vt-42" value="Make difficulty button" style="text;strokeColor=none;fillColor=none;align=left;verticalAlign=middle;spacingLeft=4;spacingRight=4;overflow=hidden;points=[[0,0.5],[1,0.5]];portConstraint=eastwest;rotatable=0;whiteSpace=wrap;html=1;" parent="uNoPzMSkY7lmCDnWB6Vt-27" vertex="1">
                    <mxGeometry y="120" width="390" height="30" as="geometry"/>
                </mxCell>
                <mxCell id="2" value="Make quit button" style="text;strokeColor=none;fillColor=none;align=left;verticalAlign=middle;spacingLeft=4;spacingRight=4;overflow=hidden;points=[[0,0.5],[1,0.5]];portConstraint=eastwest;rotatable=0;whiteSpace=wrap;html=1;" vertex="1" parent="uNoPzMSkY7lmCDnWB6Vt-27">
                    <mxGeometry y="150" width="390" height="30" as="geometry"/>
                </mxCell>
                <mxCell id="uNoPzMSkY7lmCDnWB6Vt-41" value="Make button to signal unsuitable image (bad crop, etc)" style="text;strokeColor=none;fillColor=none;align=left;verticalAlign=middle;spacingLeft=4;spacingRight=4;overflow=hidden;points=[[0,0.5],[1,0.5]];portConstraint=eastwest;rotatable=0;whiteSpace=wrap;html=1;" parent="uNoPzMSkY7lmCDnWB6Vt-27" vertex="1">
                    <mxGeometry y="180" width="390" height="30" as="geometry"/>
                </mxCell>
                <mxCell id="uNoPzMSkY7lmCDnWB6Vt-31" value="&lt;font color=&quot;#336600&quot;&gt;Notes: J'ai envie d'apprendre le react pour aggrandir mes domaines de compétences&lt;br&gt;&lt;br&gt;mais je ne sais pas quoi faire en premier.&amp;nbsp;&lt;br&gt;d'abord peut-être reprendre le code en main, et le git aussi.&amp;nbsp;&lt;br&gt;&lt;/font&gt;" style="rounded=0;whiteSpace=wrap;html=1;fillColor=#d5e8d4;strokeColor=#82b366;align=left;verticalAlign=top;" parent="1" vertex="1">
                    <mxGeometry x="-40" y="-500" width="390" height="96" as="geometry"/>
                </mxCell>
                <mxCell id="uNoPzMSkY7lmCDnWB6Vt-32" value="Improve training method" style="swimlane;whiteSpace=wrap;html=1;fillColor=#dae8fc;strokeColor=#6c8ebf;" parent="1" vertex="1">
                    <mxGeometry x="360" y="-500" width="390" height="230" as="geometry"/>
                </mxCell>
                <mxCell id="uNoPzMSkY7lmCDnWB6Vt-33" value="language: python&lt;br&gt;libraries.modules: PIL.Image&amp;nbsp;" style="text;html=1;align=left;verticalAlign=middle;resizable=0;points=[];autosize=1;strokeColor=none;fillColor=none;fontColor=#336600;" parent="uNoPzMSkY7lmCDnWB6Vt-32" vertex="1">
                    <mxGeometry y="24" width="173" height="41" as="geometry"/>
                </mxCell>
                <mxCell id="uNoPzMSkY7lmCDnWB6Vt-40" value="" style="group" parent="uNoPzMSkY7lmCDnWB6Vt-32" vertex="1" connectable="0">
                    <mxGeometry x="7" y="77" width="231" height="146" as="geometry"/>
                </mxCell>
                <mxCell id="uNoPzMSkY7lmCDnWB6Vt-34" value="Only show faces with the same characteristics (get discriminant characteristics with &lt;font style=&quot;font-weight: bold;&quot; color=&quot;#cc6600&quot;&gt;enrich image database&lt;/font&gt;&lt;font style=&quot;&quot; color=&quot;#000000&quot;&gt;)&lt;/font&gt;" style="rounded=1;whiteSpace=wrap;html=1;fontColor=#336600;" parent="uNoPzMSkY7lmCDnWB6Vt-40" vertex="1">
                    <mxGeometry width="231" height="60" as="geometry"/>
                </mxCell>
                <mxCell id="uNoPzMSkY7lmCDnWB6Vt-38" value="post-process the 3 images for maximal similarity (unified color balance), same size, etc." style="whiteSpace=wrap;html=1;fontColor=#336600;rounded=1;" parent="uNoPzMSkY7lmCDnWB6Vt-40" vertex="1">
                    <mxGeometry y="86" width="231" height="60" as="geometry"/>
                </mxCell>
                <mxCell id="uNoPzMSkY7lmCDnWB6Vt-39" value="" style="edgeStyle=orthogonalEdgeStyle;rounded=0;orthogonalLoop=1;jettySize=auto;html=1;fontColor=#000000;" parent="uNoPzMSkY7lmCDnWB6Vt-40" source="uNoPzMSkY7lmCDnWB6Vt-34" target="uNoPzMSkY7lmCDnWB6Vt-38" edge="1">
                    <mxGeometry relative="1" as="geometry"/>
                </mxCell>
            </root>
        </mxGraphModel>
    </diagram>
</mxfile>